<?xml version="1.0" standalone="no"?>
<!DOCTYPE svg PUBLIC "-//W3C//DTD SVG 20010904//EN"
 "http://www.w3.org/TR/2001/REC-SVG-20010904/DTD/svg10.dtd">
<svg version="1.0" xmlns="http://www.w3.org/2000/svg"
 width="700.000000pt" height="700.000000pt" viewBox="0 0 700.000000 700.000000"
 preserveAspectRatio="xMidYMid meet">
<metadata>
Created by potrace 1.11, written by Peter Selinger 2001-2013
</metadata>
<g transform="translate(0.000000,700.000000) scale(0.100000,-0.100000)"
fill="#000000" stroke="none">
<path d="M140 3500 l0 -3360 3360 0 3360 0 0 3360 0 3360 -3360 0 -3360 0 0
-3360z m2705 2230 c567 -37 934 -165 1199 -420 227 -218 335 -500 336 -871 0
-344 -102 -602 -321 -814 -98 -94 -191 -159 -307 -213 l-77 -35 94 -24 c223
-56 400 -154 556 -308 185 -183 291 -381 342 -640 24 -125 24 -411 -1 -550
-119 -663 -648 -1096 -1488 -1219 -184 -27 -497 -36 -1365 -36 l-843 0 0 2570
0 2570 858 0 c478 0 928 -5 1017 -10z"/>
<path d="M1995 4948 c-3 -7 -4 -308 -3 -668 l3 -655 370 0 c310 1 384 4 455
18 248 51 433 224 497 467 25 93 24 312 -1 400 -61 213 -210 352 -441 410
-112 29 -275 40 -598 40 -213 0 -279 -3 -282 -12z"/>
<path d="M1990 2129 l0 -731 483 5 c511 5 554 8 686 57 216 81 366 243 422
457 28 108 28 287 0 398 -51 198 -166 342 -341 429 -112 55 -243 90 -394 105
-60 6 -277 11 -483 11 l-373 0 0 -731z"/>
</g>
</svg>
